<svg height="511pt" viewBox="0 -41 511.99956 511" width="511pt" xmlns="http://www.w3.org/2000/svg"><path d="m496.527344 329.894531c-100.148438 84-167.628906 62.945313-205.023438 33.777344-7.578125 15.144531-16.726562 30.980469-27.667968 47.523437-3.324219 5.015626-10.769532 4.855469-13.859376-.3125-6.316406-10.507812-16.25-28.070312-26.277343-49.789062-36.679688 30.425781-105.15625 55.25-208.230469-31.199219-4.140625-3.476562-3.867188-9.933593.566406-13.019531 3.546875-2.476562 8.128906-5.53125 13.578125-8.894531 41.085938-25.378907 131.765625-68.105469 204.222657-7.546875h44.328124c72.457032-60.566406 163.136719-17.839844 204.21875 7.546875 5.453126 3.363281 10.035157 6.417969 13.582032 8.894531 4.433594 3.085938 4.703125 9.542969.5625 13.019531zm0 0" fill="#1ab975"/><path d="m278.164062 300.433594h-44.328124c-72.457032-60.558594-163.136719-17.832032-204.222657 7.546875 95.226563 72.796875 173.777344 47.230469 208.757813 18.214843l14.640625 35.597657c1.351562 3.285156 6 3.300781 7.371093.019531l14.253907-34.105469c35.613281 27.773438 115.355469 50.90625 207.746093-19.726562-41.082031-25.386719-131.761718-68.113281-204.21875-7.546875zm0 0" fill="#169b62"/><path d="m252.421875 318.085938s-42.625 33.085937-101.046875 16.378906c-41.414062-11.824219-90.78125-48.707032-138.503906-140.164063-2.671875-5.109375.613281-11.324219 6.335937-11.960937 13.84375-1.558594 38.667969-3.523438 67.117188-2.015625 71.074219 3.808593 164.75 29.417969 166.097656 137.761719zm0 0" fill="#e25ca5"/><path d="m252.421875 318.085938s-42.625 33.085937-101.046875 16.378906c-30.644531-25.195313-58.5625-71.054688-65.050781-154.140625 71.074219 3.808593 164.75 29.417969 166.097656 137.761719zm0 0" fill="#dd3f95"/><path d="m499.128906 194.300781c-42.667968 81.773438-86.640625 119.90625-125.085937 135.53125-65.191407 26.496094-114.46875-11.746093-114.46875-11.746093 1.332031-107.285157 93.203125-133.4375 164.015625-137.640626 29.316406-1.730468 55.027344.304688 69.203125 1.894532 5.722656.636718 9.003906 6.851562 6.335937 11.960937zm0 0" fill="#e25ca5"/><path d="m246.15625 322.367188s-16.320312 2.074218-37.96875-3.476563c-45.378906-11.644531-114.1875-56.820313-105.371094-224.914063.300782-5.742187 6.277344-9.429687 11.535156-7.070312 12.300782 5.507812 33.648438 15.925781 56.507813 30.886719 59.804687 39.121093 129.921875 109.378906 75.296875 204.574219zm0 0" fill="#e25ca5"/><path d="m423.589844 180.445312c-3.304688 75.703126-24.210938 121.609376-49.546875 149.386719-65.191407 26.496094-114.46875-11.746093-114.46875-11.746093 1.332031-107.285157 93.203125-133.4375 164.015625-137.640626zm0 0" fill="#dd3f95"/><path d="m311.371094 316.695312c-25.300782 8.25-45.527344 5.671876-45.527344 5.671876-52.449219-91.394532 10.113281-159.824219 68.113281-199.757813 25.488281-17.558594 50.109375-29.621094 63.691407-35.703125 5.257812-2.359375 11.230468 1.328125 11.535156 7.070312 8.332031 158.996094-52.769532 208.019532-97.8125 222.71875zm0 0" fill="#e25ca5"/><path d="m311.371094 316.695312c-25.300782 8.25-45.527344 5.671876-45.527344 5.671876-52.449219-91.394532 10.113281-159.824219 68.113281-199.757813 19.34375 58.792969 26.496094 133.296875-22.585937 194.085937zm0 0" fill="#dd3f95"/><path d="m246.15625 322.367188s-16.320312 2.074218-37.96875-3.476563c-28.816406-31.644531-68.457031-97.421875-37.328125-201.097656 59.804687 39.121093 129.921875 109.378906 75.296875 204.574219zm0 0" fill="#dd3f95"/><path d="m273.550781 313.542969c-1.9375 2.054687-3.960937 4.078125-6.054687 6.09375-6.953125 6.679687-18.003906 6.4375-24.804688-.402344-31.9375-32.058594-105.851562-132.792969 5.832032-301.21875 3.246093-4.898437 10.4375-4.898437 13.683593 0 3.03125 4.574219 6.871094 10.699219 11.109375 18.132813 32.039063 55.933593 87.621094 185.492187.234375 277.394531zm0 0" fill="#e779b5"/><path d="m273.550781 313.542969c-32.550781-35.828125-89.886719-128.53125-.234375-277.394531 32.039063 55.933593 87.621094 185.492187.234375 277.394531zm0 0" fill="#efa4cd"/><path d="m509.164062 317.199219c-.3125-.253907-7.839843-6.246094-20.5625-14.257813-3.539062-2.226562-8.203124-1.167968-10.417968 2.371094-2.226563 3.535156-1.167969 8.199219 2.367187 10.414062 4.726563 2.972657 8.695313 5.664063 11.777344 7.828126-45.898437 38.65625-88.816406 58.253906-127.664063 58.253906-37.675781 0-69.085937-18.660156-91.738281-47.25 58.78125 27.546875 118.808594 6.90625 165.90625-40.703125 5.289063 2.238281 10.628907 4.707031 16.007813 7.394531 3.738281 1.863281 8.273437.351562 10.136718-3.375 1.863282-3.738281.351563-8.269531-3.375-10.144531-3.96875-1.984375-7.910156-3.847657-11.839843-5.601563 21.730469-24.671875 42.242187-56.347656 61.445312-94.882812 2.25-4.515625-.507812-9.988282-5.519531-10.820313-20.617188-3.460937-57.636719-5.726562-91.0625-2.910156 3.324219-27.261719 3.796875-57.867187 1.378906-91.738281-.363281-5.039063-5.5-8.339844-10.257812-6.519532-16.632813 6.398438-53.425782 23.976563-86.609375 48.640626-4.019531-15.070313-9.417969-30.484376-16.160157-46.203126-1.652343-3.828124-6.09375-5.609374-9.921874-3.957031-3.839844 1.640625-5.613282 6.085938-3.96875 9.921875 36.253906 84.5625 35.886718 168.082032-34.042969 229.054688-.03125-.019532-.0625-.050782-.089844-.070313-28.839844-24.542969-46.855469-56.199219-54.3125-89.914062-15.414063-69.785157 15.121094-141.855469 54.722656-201.351563 5.121094 7.65625 12.855469 19.980469 20.976563 35.492188 1.933594 3.699218 6.5 5.128906 10.195312 3.195312 3.699219-1.933594 5.128906-6.5 3.195313-10.195312-14.648438-28.007813-27.855469-45.617188-28.410157-46.363282-3.1875-4.21875-9.359374-3.875-12.242187.242188-28.539063 41.0625-48.125 80.675781-58.601563 118.386719-28.210937-20.578125-62.679687-38.589844-84.226562-46.878907-4.753906-1.820312-9.890625 1.480469-10.253906 6.519532-2.417969 33.871094-1.945313 64.476562 1.378906 91.738281-33.464844-2.816406-70.488281-.542969-91.0625 2.910156-5.019531.835938-7.765625 6.308594-5.519531 10.820313 19.179687 38.507812 39.683593 70.160156 61.394531 94.832031-34.234375 15.242187-57.707031 33.800781-59.351562 35.121094-3.664063 2.921875-3.792969 8.476562-.261719 11.566406 13.390625 11.785156 26.777343 22.183594 39.773437 30.917969 1.289063.867187 2.75 1.277344 4.203125 1.277344 7.425781 0 10.410157-9.675782 4.21875-13.832032-10.152343-6.820312-20.582031-14.726562-31.078125-23.5625 9.972656-6.980468 29.296875-19.402344 53.535156-29.648437 46.621094 47.085937 106.546876 68.421875 165.808594 40.648437-37.828125 47.765625-94.617187 63.296875-163.058594 27.625-3.695312-1.925781-8.261718-.492187-10.195312 3.214844-1.921875 3.695312-.484375 8.261719 3.214844 10.183594 51.082031 26.628906 104.742187 31.152344 151.855468-2.757813 14.957032 30.96875 28.648438 51.660157 29.578126 53.050781 2.992187 4.492188 9.503906 4.429688 12.492187.121094 11.976563-17.246094 22.414063-34.285156 31.25-51.058594 70.824219 48.125 150.691406 10.601563 215.253906-46.179687 3.539063-3.097656 3.390625-8.652344-.261719-11.566406zm-96.789062-128.238281c34.125-3.175782 65.054688-.726563 80.488281 1.015624-41.328125 79.535157-107.507812 160.644532-193.957031 137.839844 67.070312-13.398437 101.933594-71.148437 113.46875-138.855468zm-118.191406 103.917968c33.230468-44.703125 40.105468-97.78125 28.78125-152.78125 30.507812-23.714844 62.945312-39.632812 78.621094-46.65625 1.644531 30.164063.847656 57.417969-2.367188 81.675782-10.125 77.253906-50.738281 140.046874-125.941406 140.046874 11.054687-11.101562 9.078125-6.371093 20.90625-22.285156zm-275.054688-102.910156c15.433594-1.753906 46.359375-4.210938 80.484375-1.039062 11.621094 68.132812 46.5 125.5625 113.609375 138.917968-86.664062 22.925782-152.953125-58.636718-194.09375-137.878906zm123.027344 72.113281c-30.703125-46.386719-34.769531-113.089843-31.742188-168.640625 15.25 6.824219 46.371094 22.054688 76.132813 44.710938-15.351563 72.367187 5.570313 134.820312 48.589844 177-36.625-1.101563-70.617188-19.179688-92.980469-53.070313zm114.820312 145.777344c-5.671874-9.417969-14.667968-25.1875-23.988281-44.8125 6.90625-6.023437 15.839844-15.71875 23.011719-25.871094 7.722656 10.929688 17.074219 20.957031 25.980469 28.472657-7.191407 13.859374-15.535157 27.945312-25.003907 42.210937zm0 0"/></svg>